<svg xmlns="http://www.w3.org/2000/svg" viewBox="10 10 80 80" x="0px" y="0px">
    <defs>
        <linearGradient id="grad1" x1="0%" x2="100%" y1="0%" y2="100%">
            <stop offset="20%" stop-color="#0d1578" />
            <stop offset="70%" stop-color="#1423ff" />
        </linearGradient>
    </defs>
    <path fill="url(#grad1)" d="M86.67,50c0,.25-.18,.46-.43,.49-28.21,4.19-31.55,7.54-35.74,35.74-.04,.24-.25,.43-.49,.43s-.46-.18-.49-.43c-4.19-28.21-7.54-31.55-35.74-35.74-.24-.04-.43-.25-.43-.49s.18-.46,.43-.49c28.21-4.19,31.55-7.54,35.74-35.74,.04-.24,.25-.43,.49-.43s.46,.18,.49,.43c4.19,28.21,7.54,31.55,35.74,35.74,.24,.04,.43,.25,.43,.49Z"/>
</svg>